<svg width="24" height="24" viewBox="0 0 24 24" fill="none" xmlns="http://www.w3.org/2000/svg">
<path opacity="0.8" fill-rule="evenodd" clip-rule="evenodd" d="M12.6826 22.0002H3.10385C2.49403 22.0002 2 21.5059 2 20.8963V3.10408C2 2.49435 2.49411 2.00024 3.10385 2.00024H20.8962C21.5058 2.00024 22 2.49435 22 3.10408V20.8963C22 21.506 21.5057 22.0002 20.8962 22.0002H15.7997V14.2551H18.3994L18.7886 11.2367H15.7997V9.30968C15.7997 8.43578 16.0424 7.84025 17.2955 7.84025L18.8939 7.83955V5.13987C18.6175 5.10308 17.6687 5.0209 16.5648 5.0209C14.2603 5.0209 12.6826 6.42755 12.6826 9.01075V11.2367H10.0763V14.2551H12.6826V22.0002Z" fill="white"/>
<mask id="mask0" mask-type="alpha" maskUnits="userSpaceOnUse" x="2" y="2" width="20" height="21">
<path fill-rule="evenodd" clip-rule="evenodd" d="M12.6826 22.0002H3.10385C2.49403 22.0002 2 21.5059 2 20.8963V3.10408C2 2.49435 2.49411 2.00024 3.10385 2.00024H20.8962C21.5058 2.00024 22 2.49435 22 3.10408V20.8963C22 21.506 21.5057 22.0002 20.8962 22.0002H15.7997V14.2551H18.3994L18.7886 11.2367H15.7997V9.30968C15.7997 8.43578 16.0424 7.84025 17.2955 7.84025L18.8939 7.83955V5.13987C18.6175 5.10308 17.6687 5.0209 16.5648 5.0209C14.2603 5.0209 12.6826 6.42755 12.6826 9.01075V11.2367H10.0763V14.2551H12.6826V22.0002Z" fill="white"/>
</mask>
<g mask="url(#mask0)">
<rect x="2" y="2.00024" width="20" height="20" fill="BABABA"/>
</g>
</svg>
