<svg width="24" height="24" viewBox="0 0 24 24" fill="none" xmlns="http://www.w3.org/2000/svg">
<path fill-rule="evenodd" clip-rule="evenodd" d="M7.87701 2.06042C8.94362 2.01176 9.28416 2.00024 12 2.00024C14.7158 2.00024 15.0564 2.01176 16.123 2.06042C17.1874 2.10897 17.9143 2.27803 18.5504 2.52525C19.208 2.78077 19.7656 3.1227 20.3216 3.67863C20.8775 4.2346 21.2195 4.79228 21.475 5.44986C21.7222 6.08594 21.8913 6.81287 21.9398 7.87726C21.9885 8.94386 22 9.28441 22 12.0003C22 14.7161 21.9885 15.0566 21.9398 16.1232C21.8913 17.1876 21.7222 17.9146 21.475 18.5506C21.2195 19.2082 20.8775 19.7659 20.3216 20.3219C19.7656 20.8778 19.208 21.2197 18.5504 21.4753C17.9143 21.7225 17.1874 21.8915 16.123 21.9401C15.0564 21.9887 14.7158 22.0002 12 22.0002C9.28416 22.0002 8.94362 21.9887 7.87701 21.9401C6.81263 21.8915 6.08569 21.7225 5.44962 21.4753C4.79203 21.2197 4.23436 20.8778 3.67839 20.3219C3.12246 19.7659 2.78052 19.2082 2.52501 18.5506C2.27779 17.9146 2.10872 17.1876 2.06018 16.1232C2.01151 15.0566 2 14.7161 2 12.0003C2 9.28441 2.01151 8.94386 2.06018 7.87726C2.10872 6.81287 2.27779 6.08594 2.52501 5.44986C2.78052 4.79228 3.12246 4.2346 3.67839 3.67863C4.23436 3.1227 4.79203 2.78077 5.44962 2.52525C6.08569 2.27803 6.81263 2.10897 7.87701 2.06042ZM6.86487 12.0003C6.86487 9.16417 9.16393 6.86511 12 6.86511C14.8361 6.86511 17.1351 9.16417 17.1351 12.0003C17.1351 14.8363 14.8361 17.1354 12 17.1354C9.16393 17.1354 6.86487 14.8363 6.86487 12.0003ZM12 15.3336C10.159 15.3336 8.66667 13.8412 8.66667 12.0003C8.66667 10.1593 10.159 8.66691 12 8.66691C13.841 8.66691 15.3333 10.1593 15.3333 12.0003C15.3333 13.8412 13.841 15.3336 12 15.3336ZM17.338 7.86221C18.0008 7.86221 18.538 7.32498 18.538 6.66223C18.538 5.99948 18.0008 5.46221 17.338 5.46221C16.6753 5.46221 16.138 5.99948 16.138 6.66223C16.138 7.32498 16.6753 7.86221 17.338 7.86221Z" fill="white"/>
<mask id="mask0" mask-type="alpha" maskUnits="userSpaceOnUse" x="2" y="2" width="20" height="21">
<path fill-rule="evenodd" clip-rule="evenodd" d="M7.87701 2.06042C8.94362 2.01176 9.28416 2.00024 12 2.00024C14.7158 2.00024 15.0564 2.01176 16.123 2.06042C17.1874 2.10897 17.9143 2.27803 18.5504 2.52525C19.208 2.78077 19.7656 3.1227 20.3216 3.67863C20.8775 4.2346 21.2195 4.79228 21.475 5.44986C21.7222 6.08594 21.8913 6.81287 21.9398 7.87726C21.9885 8.94386 22 9.28441 22 12.0003C22 14.7161 21.9885 15.0566 21.9398 16.1232C21.8913 17.1876 21.7222 17.9146 21.475 18.5506C21.2195 19.2082 20.8775 19.7659 20.3216 20.3219C19.7656 20.8778 19.208 21.2197 18.5504 21.4753C17.9143 21.7225 17.1874 21.8915 16.123 21.9401C15.0564 21.9887 14.7158 22.0002 12 22.0002C9.28416 22.0002 8.94362 21.9887 7.87701 21.9401C6.81263 21.8915 6.08569 21.7225 5.44962 21.4753C4.79203 21.2197 4.23436 20.8778 3.67839 20.3219C3.12246 19.7659 2.78052 19.2082 2.52501 18.5506C2.27779 17.9146 2.10872 17.1876 2.06018 16.1232C2.01151 15.0566 2 14.7161 2 12.0003C2 9.28441 2.01151 8.94386 2.06018 7.87726C2.10872 6.81287 2.27779 6.08594 2.52501 5.44986C2.78052 4.79228 3.12246 4.2346 3.67839 3.67863C4.23436 3.1227 4.79203 2.78077 5.44962 2.52525C6.08569 2.27803 6.81263 2.10897 7.87701 2.06042ZM6.86487 12.0003C6.86487 9.16417 9.16393 6.86511 12 6.86511C14.8361 6.86511 17.1351 9.16417 17.1351 12.0003C17.1351 14.8363 14.8361 17.1354 12 17.1354C9.16393 17.1354 6.86487 14.8363 6.86487 12.0003ZM12 15.3336C10.159 15.3336 8.66667 13.8412 8.66667 12.0003C8.66667 10.1593 10.159 8.66691 12 8.66691C13.841 8.66691 15.3333 10.1593 15.3333 12.0003C15.3333 13.8412 13.841 15.3336 12 15.3336ZM17.338 7.86221C18.0008 7.86221 18.538 7.32498 18.538 6.66223C18.538 5.99948 18.0008 5.46221 17.338 5.46221C16.6753 5.46221 16.138 5.99948 16.138 6.66223C16.138 7.32498 16.6753 7.86221 17.338 7.86221Z" fill="white"/>
</mask>
<g mask="url(#mask0)">
<rect x="2" y="2.00024" width="20" height="20" fill="#BABABA"/>
</g>
</svg>
