<svg width="24" height="24" viewBox="0 0 24 24" fill="none" xmlns="http://www.w3.org/2000/svg">
<path fill-rule="evenodd" clip-rule="evenodd" d="M22 5.0522C21.2651 5.40024 20.4739 5.63561 19.644 5.74078C20.4915 5.19993 21.1419 4.34234 21.4483 3.32074C20.6547 3.82153 19.7778 4.18585 18.841 4.38115C18.0944 3.53107 17.0273 3.00024 15.8463 3.00024C13.5819 3.00024 11.7447 4.95956 11.7447 7.37583C11.7447 7.71887 11.7799 8.05189 11.8503 8.37239C8.4401 8.1896 5.41727 6.44938 3.39226 3.79899C3.03892 4.44751 2.837 5.19993 2.837 6.00118C2.837 7.51855 3.56131 8.85815 4.66244 9.64312C3.99096 9.62184 3.35705 9.42278 2.80296 9.09727V9.1511C2.80296 11.2719 4.21753 13.0409 6.09579 13.4416C5.75183 13.5442 5.38909 13.5955 5.01462 13.5955C4.75048 13.5955 4.49222 13.5693 4.24218 13.5179C4.76457 15.2556 6.27892 16.5214 8.07501 16.5552C6.67101 17.7295 4.90075 18.4294 2.97905 18.4294C2.648 18.4294 2.32048 18.4093 2 18.3693C3.81605 19.6087 5.9737 20.3336 8.28984 20.3336C15.8381 20.3336 19.9644 13.6669 19.9644 7.88413C19.9644 7.69383 19.9609 7.50353 19.9539 7.31699C20.7556 6.69977 21.4518 5.92982 22 5.0522Z" fill="white"/>
<mask id="mask0" mask-type="alpha" maskUnits="userSpaceOnUse" x="2" y="3" width="20" height="18">
<path fill-rule="evenodd" clip-rule="evenodd" d="M22 5.0522C21.2651 5.40024 20.4739 5.63561 19.644 5.74078C20.4915 5.19993 21.1419 4.34234 21.4483 3.32074C20.6547 3.82153 19.7778 4.18585 18.841 4.38115C18.0944 3.53107 17.0273 3.00024 15.8463 3.00024C13.5819 3.00024 11.7447 4.95956 11.7447 7.37583C11.7447 7.71887 11.7799 8.05189 11.8503 8.37239C8.4401 8.1896 5.41727 6.44938 3.39226 3.79899C3.03892 4.44751 2.837 5.19993 2.837 6.00118C2.837 7.51855 3.56131 8.85815 4.66244 9.64312C3.99096 9.62184 3.35705 9.42278 2.80296 9.09727V9.1511C2.80296 11.2719 4.21753 13.0409 6.09579 13.4416C5.75183 13.5442 5.38909 13.5955 5.01462 13.5955C4.75048 13.5955 4.49222 13.5693 4.24218 13.5179C4.76457 15.2556 6.27892 16.5214 8.07501 16.5552C6.67101 17.7295 4.90075 18.4294 2.97905 18.4294C2.648 18.4294 2.32048 18.4093 2 18.3693C3.81605 19.6087 5.9737 20.3336 8.28984 20.3336C15.8381 20.3336 19.9644 13.6669 19.9644 7.88413C19.9644 7.69383 19.9609 7.50353 19.9539 7.31699C20.7556 6.69977 21.4518 5.92982 22 5.0522Z" fill="white"/>
</mask>
<g mask="url(#mask0)">
<rect x="2" y="2.00024" width="20" height="20" fill="#BABABA"/>
</g>
</svg>
